<?xml version="1.0" encoding="utf-8"?>
<!-- Generator: Adobe Illustrator 22.1.0, SVG Export Plug-In . SVG Version: 6.00 Build 0)  -->
<svg version="1.1" id="Capa_1" xmlns="http://www.w3.org/2000/svg" xmlns:xlink="http://www.w3.org/1999/xlink" x="0px" y="0px"
	 viewBox="0 0 281.7 51" style="enable-background:new 0 0 281.7 51;" xml:space="preserve">
<style type="text/css">
	.st0{fill:url(#SVGID_1_);}
	.st1{fill:url(#SVGID_2_);}
	.st2{fill:url(#SVGID_3_);}
	.st3{fill:url(#SVGID_4_);}
	.st4{fill:url(#SVGID_5_);}
	.st5{fill:url(#SVGID_6_);}
	.st6{fill:url(#SVGID_7_);}
	.st7{fill:#FFFFFF;}
</style>
<g>
	<g>
		<linearGradient id="SVGID_1_" gradientUnits="userSpaceOnUse" x1="18.4098" y1="0.4522" x2="18.4098" y2="63.6666">
			<stop  offset="0.1852" style="stop-color:#B6D5FC"/>
			<stop  offset="0.2521" style="stop-color:#AACCF3"/>
			<stop  offset="0.3722" style="stop-color:#8BB3DC"/>
			<stop  offset="0.5306" style="stop-color:#598BB7"/>
			<stop  offset="0.5794" style="stop-color:#487DAB"/>
			<stop  offset="0.7653" style="stop-color:#2D3563"/>
			<stop  offset="0.9418" style="stop-color:#101C2C"/>
		</linearGradient>
		<path class="st0" d="M0,18.4C0,8.3,8.3,0,18.4,0c10.1,0,18.4,8.3,18.4,18.4c0,10.1-8.3,18.4-18.4,18.4C8.3,36.8,0,28.5,0,18.4z
			 M34.6,50.3H1.8v-8.2h32.7V50.3z M8.2,18.4c0,5.7,4.5,10.2,10.2,10.2c5.7,0,10.2-4.5,10.2-10.2c0-5.7-4.5-10.2-10.2-10.2
			C12.7,8.2,8.2,12.7,8.2,18.4z"/>
		<linearGradient id="SVGID_2_" gradientUnits="userSpaceOnUse" x1="66.2015" y1="0.4522" x2="66.2015" y2="63.6666">
			<stop  offset="0.1852" style="stop-color:#B6D5FC"/>
			<stop  offset="0.2521" style="stop-color:#AACCF3"/>
			<stop  offset="0.3722" style="stop-color:#8BB3DC"/>
			<stop  offset="0.5306" style="stop-color:#598BB7"/>
			<stop  offset="0.5794" style="stop-color:#487DAB"/>
			<stop  offset="0.7653" style="stop-color:#2D3563"/>
			<stop  offset="0.9418" style="stop-color:#101C2C"/>
		</linearGradient>
		<path class="st1" d="M81.6,37.9l5.8,5.9C82.9,48.2,76.8,51,69.9,51C56.2,51,45,41.1,45,25.5C45,10.6,55.4,0,69.9,0
			c6.9,0,13,2.8,17.5,7.3l-5.8,5.8c-3-3-7.2-4.8-11.7-4.8c-10.2,0-16.4,7.2-16.4,17.2c0,10.6,7.3,17.2,16.4,17.2
			C74.4,42.7,78.6,40.9,81.6,37.9z"/>
		<linearGradient id="SVGID_3_" gradientUnits="userSpaceOnUse" x1="114.4526" y1="0.4522" x2="114.4526" y2="63.6666">
			<stop  offset="0.1852" style="stop-color:#B6D5FC"/>
			<stop  offset="0.2521" style="stop-color:#AACCF3"/>
			<stop  offset="0.3722" style="stop-color:#8BB3DC"/>
			<stop  offset="0.5306" style="stop-color:#598BB7"/>
			<stop  offset="0.5794" style="stop-color:#487DAB"/>
			<stop  offset="0.7653" style="stop-color:#2D3563"/>
			<stop  offset="0.9418" style="stop-color:#101C2C"/>
		</linearGradient>
		<path class="st2" d="M95.9,34.4V0.7h8.3v33.7c0.4,5.7,5,8.3,10.3,8.3c5.2,0,10.3-2.8,10.3-8.3V0.7h8.3v33.7
			C133,45,125,51,114.4,51C104.2,51,95.9,44.6,95.9,34.4z"/>
		<linearGradient id="SVGID_4_" gradientUnits="userSpaceOnUse" x1="157.5365" y1="0.4522" x2="157.5365" y2="63.6666">
			<stop  offset="0.1852" style="stop-color:#B6D5FC"/>
			<stop  offset="0.2521" style="stop-color:#AACCF3"/>
			<stop  offset="0.3722" style="stop-color:#8BB3DC"/>
			<stop  offset="0.5306" style="stop-color:#598BB7"/>
			<stop  offset="0.5794" style="stop-color:#487DAB"/>
			<stop  offset="0.7653" style="stop-color:#2D3563"/>
			<stop  offset="0.9418" style="stop-color:#101C2C"/>
		</linearGradient>
		<path class="st3" d="M170.8,42v8.3h-26.6V0.7h8.3V42H170.8z"/>
		<linearGradient id="SVGID_5_" gradientUnits="userSpaceOnUse" x1="186.3538" y1="0.4522" x2="186.3538" y2="63.6666">
			<stop  offset="0.1852" style="stop-color:#B6D5FC"/>
			<stop  offset="0.2521" style="stop-color:#AACCF3"/>
			<stop  offset="0.3722" style="stop-color:#8BB3DC"/>
			<stop  offset="0.5306" style="stop-color:#598BB7"/>
			<stop  offset="0.5794" style="stop-color:#487DAB"/>
			<stop  offset="0.7653" style="stop-color:#2D3563"/>
			<stop  offset="0.9418" style="stop-color:#101C2C"/>
		</linearGradient>
		<path class="st4" d="M200.9,8.3h-10.4v42h-8.2v-42h-10.4V0.7h29V8.3z"/>
		<linearGradient id="SVGID_6_" gradientUnits="userSpaceOnUse" x1="226.323" y1="0.4522" x2="226.323" y2="63.6666">
			<stop  offset="0.1852" style="stop-color:#B6D5FC"/>
			<stop  offset="0.2521" style="stop-color:#AACCF3"/>
			<stop  offset="0.3722" style="stop-color:#8BB3DC"/>
			<stop  offset="0.5306" style="stop-color:#598BB7"/>
			<stop  offset="0.5794" style="stop-color:#487DAB"/>
			<stop  offset="0.7653" style="stop-color:#2D3563"/>
			<stop  offset="0.9418" style="stop-color:#101C2C"/>
		</linearGradient>
		<path class="st5" d="M207.7,34.4V0.7h8.3v33.7c0.4,5.7,5,8.3,10.3,8.3c5.2,0,10.3-2.8,10.3-8.3V0.7h8.3v33.7
			c0,10.6-8.1,16.6-18.6,16.6C216.1,51,207.7,44.6,207.7,34.4z"/>
		<linearGradient id="SVGID_7_" gradientUnits="userSpaceOnUse" x1="267.2122" y1="0.4522" x2="267.2122" y2="63.6666">
			<stop  offset="0.1852" style="stop-color:#B6D5FC"/>
			<stop  offset="0.2521" style="stop-color:#AACCF3"/>
			<stop  offset="0.3722" style="stop-color:#8BB3DC"/>
			<stop  offset="0.5306" style="stop-color:#598BB7"/>
			<stop  offset="0.5794" style="stop-color:#487DAB"/>
			<stop  offset="0.7653" style="stop-color:#2D3563"/>
			<stop  offset="0.9418" style="stop-color:#101C2C"/>
		</linearGradient>
		<path class="st6" d="M281.7,50.3h-28.8L269.4,9h-16.6V0.7h28.8L265.1,42h16.6V50.3z"/>
	</g>
	<circle class="st7" cx="23.9" cy="10.6" r="3.4"/>
</g>
</svg>
