<?xml version="1.0" encoding="utf-8"?>
<!-- Generator: Adobe Illustrator 22.1.0, SVG Export Plug-In . SVG Version: 6.00 Build 0)  -->
<svg version="1.1" id="Capa_1" xmlns="http://www.w3.org/2000/svg" xmlns:xlink="http://www.w3.org/1999/xlink" x="0px" y="0px"
	 viewBox="0 0 539.7 758.5" style="enable-background:new 0 0 539.7 758.5;" xml:space="preserve">
<style type="text/css">
	.st0{display:none;fill:#142230;}
	.st1{display:none;}
	.st2{display:inline;}
	.st3{display:inline;opacity:0.5;fill:#79CFFC;}
	.st4{display:inline;opacity:0.23;fill:#79CFFC;}
	.st5{opacity:0.23;fill:none;stroke:#FFFFFF;stroke-miterlimit:10;}
</style>
<image style="display:none;overflow:visible;" width="1080" height="719" xlink:href="4DBEF531B4FAB37E.jpg"  transform="matrix(1.8999 0 0 1.8999 -1510.3251 -334.2504)">
</image>
<rect x="-1445.4" y="22.6" class="st0" width="1920" height="709"/>
<g class="st1">
	<defs>
		<rect id="SVGID_1_" x="-1445.4" y="22.6" width="1920" height="709"/>
	</defs>
	<clipPath id="SVGID_2_" class="st2">
		<use xlink:href="#SVGID_1_"  style="overflow:visible;"/>
	</clipPath>
	<g style="display:inline;clip-path:url(#SVGID_2_);">
		
			<image style="overflow:visible;" width="1080" height="719" xlink:href="4DBEF531B4FAB382.jpg"  transform="matrix(1.7778 0 0 1.7778 -1445.4001 -290.3615)">
		</image>
	</g>
</g>
<g class="st1">
	<polygon id="XMLID_16_" class="st3" points="-621.4,108.3 -672.5,196.9 -570.2,196.9 	"/>
	<polygon id="XMLID_15_" class="st4" points="-1232.1,321.6 -1056.4,17.3 -1407.7,17.3 	"/>
	<polygon id="XMLID_14_" class="st3" points="-1159.7,152.6 -1219.4,256.1 -1099.9,256.1 	"/>
	<polygon id="XMLID_11_" class="st3" points="-779.3,84.4 -747.6,29.6 -810.9,29.6 	"/>
</g>
<g class="st1">
	<polygon id="XMLID_13_" class="st3" points="-30.5,685.2 10.2,614.7 -71.2,614.7 	"/>
	<polygon id="XMLID_12_" class="st4" points="-92.8,550.6 -180.9,703.2 -4.7,703.2 	"/>
	<polygon id="XMLID_10_" class="st3" points="-451.3,542.3 -493,614.5 -409.6,614.5 	"/>
	<polygon id="XMLID_9_" class="st4" points="-407.2,567.3 -380.3,520.7 -434.1,520.7 	"/>
</g>
<g>
	<line id="XMLID_8_" class="st5" x1="259.1" y1="341.9" x2="449.9" y2="0.2"/>
	<line id="XMLID_7_" class="st5" x1="348.5" y1="493.8" x2="539.3" y2="152.1"/>
	<line id="XMLID_6_" class="st5" x1="219.5" y1="651" x2="410.3" y2="309.3"/>
	<line id="XMLID_5_" class="st5" x1="0.4" y1="758.2" x2="191.2" y2="416.6"/>
</g>
</svg>
